<?xml version="1.0" encoding="UTF-8"?><svg width="24px" height="24px" stroke-width="1.5" viewBox="0 0 24 24" fill="none" xmlns="http://www.w3.org/2000/svg" color="#000000"><path d="M4 6v6s0 3 7 3 7-3 7-3V6" stroke="#000000" stroke-width="1.5" stroke-linecap="round" stroke-linejoin="round"></path><path d="M11 3c7 0 7 3 7 3s0 3-7 3-7-3-7-3 0-3 7-3zM11 21c-7 0-7-3-7-3v-6M19 21a2 2 0 100-4 2 2 0 000 4z" stroke="#000000" stroke-width="1.5" stroke-linecap="round" stroke-linejoin="round"></path><path d="M19 22a3 3 0 100-6 3 3 0 000 6z" stroke="#000000" stroke-width="1.5" stroke-linecap="round" stroke-linejoin="round" stroke-dasharray="0.3 2"></path></svg>